<svg xmlns="http://www.w3.org/2000/svg" viewBox="0 0 1024 1024" width="1024" height="1024"><defs><linearGradient id="bgB" x1="0" y1="0" x2="0" y2="1"><stop offset="0" stop-color="#5FC2E8"/><stop offset="1" stop-color="#0F5478"/></linearGradient></defs><rect width="1024" height="1024" fill="url(#bgB)"/><g transform="translate(300 812) rotate(-20)"><rect x="-125.0" y="-175.0" width="250" height="350" rx="30" fill="#FFFFFF"/><rect x="-125.0" y="-175.0" width="250" height="350" rx="30" fill="none" stroke="rgba(0,0,0,0.10)" stroke-width="3"/><text x="-99.0" y="-83.0" font-family="Helvetica,Arial,sans-serif" font-size="86" font-weight="bold" fill="#D65A4B">A</text><text x="-101.0" y="-7.0" font-family="Helvetica,Arial,sans-serif" font-size="76" fill="#D65A4B">&#9829;</text></g><g transform="translate(724 812) rotate(20)"><rect x="-125.0" y="-175.0" width="250" height="350" rx="30" fill="#FFFFFF"/><rect x="-125.0" y="-175.0" width="250" height="350" rx="30" fill="none" stroke="rgba(0,0,0,0.10)" stroke-width="3"/><text x="-99.0" y="-83.0" font-family="Helvetica,Arial,sans-serif" font-size="86" font-weight="bold" fill="#2B3A45">A</text><text x="-101.0" y="-7.0" font-family="Helvetica,Arial,sans-serif" font-size="76" fill="#2B3A45">&#9824;</text></g><circle cx="260.48" cy="479.44" r="52.400000000000006" fill="#DCA771"/><circle cx="763.52" cy="479.44" r="52.400000000000006" fill="#DCA771"/><circle cx="512" cy="448" r="262" fill="#F3C08E"/><path d="M 250 400.84000000000003 A 262 262 0 0 1 774 400.84000000000003 A 259.38 162.44 0 0 0 250 400.84000000000003 Z" fill="#4A342B"/><rect x="255.24" y="351.1296" width="513.52" height="36.68000000000001" rx="15.719999999999999" fill="#2B3A45"/><rect x="255.24" y="377.32959999999997" width="233.18" height="120.52000000000001" rx="36.156" fill="#2B3A45"/><rect x="535.58" y="377.32959999999997" width="233.18" height="120.52000000000001" rx="36.156" fill="#2B3A45"/><rect x="488.42" y="396.6128" width="47.16" height="23.58" fill="#2B3A45"/><rect x="449.12" y="563.28" width="125.75999999999999" height="15.719999999999999" rx="7.859999999999999" fill="#33241E"/></svg>